<?xml version="1.0" encoding="UTF-8"?><svg id="Brand_Alt_Horizontal" xmlns="http://www.w3.org/2000/svg" viewBox="0 0 588.32 68.75"><defs><style>.cls-1{fill:#9db0ac;}.cls-1,.cls-2,.cls-3{stroke-width:0px;}.cls-2{fill:#fff;}.cls-3{fill:#fcf6ef;}</style></defs><path class="cls-3" d="m137.82,27.52c.47-.56.82-1.03,1.22-1.46,1.99-2.18,4.49-3.27,7.41-3.5,2.84-.23,5.51.29,8.01,1.67,2.79,1.54,4.77,3.84,6.14,6.68,1.54,3.2,1.96,6.6,1.61,10.08-.42,4.24-2.14,7.91-5.3,10.83-2.17,2-4.75,3.26-7.63,3.89-2.52.55-5.06.59-7.6.15-3.66-.64-6.77-2.28-9.21-5.11-1.87-2.17-2.97-4.72-3.62-7.49-.41-1.77-.54-3.55-.54-5.36,0-9.84,0-19.68,0-29.53,0-.18.02-.36.02-.58h9.48v19.72Zm7.45,3.76c-.54.06-1.08.08-1.62.18-2.21.39-3.83,1.61-4.86,3.58-1.08,2.06-1.17,4.26-.69,6.5.41,1.96,1.43,3.55,3.11,4.66,1.45.96,3.06,1.21,4.77,1.09,2.96-.22,4.99-1.72,6.11-4.42.8-1.93.78-3.94.38-5.96-.28-1.4-.91-2.62-1.95-3.62-1.47-1.4-3.23-2.01-5.25-2.01Z"/><path class="cls-3" d="m271.45,23.51c-4.06,4.86-8.05,9.64-12.06,14.44,4.28,5.71,8.55,11.39,12.87,17.15-.23.02-.39.04-.55.04-3.61,0-7.22,0-10.82.01-.37,0-.58-.13-.79-.42-3.62-4.97-7.25-9.94-10.88-14.91-.11-.15-.22-.3-.43-.57v15.85h-10.16V7.81h10.11v29.79c.18-.16.28-.24.35-.33,3.63-4.45,7.26-8.91,10.88-13.37.24-.29.47-.41.86-.41,3.34.02,6.67,0,10.01,0,.16,0,.33,0,.6,0Z"/><path class="cls-3" d="m186.53,50.04c-.23.39-.4.71-.59.99-1.75,2.5-4.18,3.99-7.11,4.69-2.82.67-5.64.71-8.34-.52-2.83-1.29-4.48-3.48-4.77-6.63-.17-1.77.06-3.45.84-5.05,1.04-2.13,2.83-3.38,4.97-4.21,2.75-1.07,5.64-1.59,8.53-2.15,1.44-.28,2.86-.71,4.23-1.24,1.07-.41,1.52-1.34,1.38-2.25-.13-.8-.7-1.22-1.37-1.52-1.36-.61-2.81-.62-4.26-.57-3.96.12-7.66,1.22-11.18,3-.27.14-.54.29-.8.44-.27.15-.53.3-.85.48-.02-.2-.04-.34-.04-.48,0-2.8,0-5.61-.01-8.41,0-.36.13-.54.44-.7,2.84-1.52,5.88-2.47,9.04-3.01,2.68-.46,5.38-.55,8.08-.19,2.76.37,5.39,1.1,7.52,3.07,1.64,1.52,2.56,3.41,2.88,5.59.15,1,.18,2.03.19,3.05.02,3.82.01,7.65.02,11.47,0,1.67,1.12,2,2.45,1.75.13-.03.26-.07.43-.12,0,1.32,0,2.61,0,3.9,0,1-.02,2.01.01,3.01.01.37-.13.55-.44.69-1.44.66-2.97.99-4.55.98-1.21,0-2.41-.18-3.51-.72-1.99-.97-2.94-2.63-3.13-4.78-.01-.14-.02-.29-.04-.54Zm-.17-9.29c-.58.31-1.08.68-1.65.86-1.53.5-3.09.91-4.64,1.36-1.14.33-2.27.7-3.2,1.5-1.62,1.4-1.28,3.89.72,4.65,1.67.63,3.33.33,4.87-.5,1.65-.89,2.65-2.35,3.28-4.07.44-1.21.66-2.47.62-3.8Z"/><path class="cls-3" d="m80.62,23.52h10.26c-.2.58-.4,1.13-.59,1.67-4.02,11.25-8.03,22.5-12.05,33.75-.8,2.24-1.83,4.35-3.45,6.13-1.8,1.98-4.05,3.11-6.68,3.49-1.86.27-3.74.3-5.56-.22-.87-.25-1.68-.7-2.5-1.1-.14-.07-.28-.31-.28-.48-.02-2.69,0-5.37,0-8.06,0-.03.02-.06.02-.06.8.31,1.58.68,2.4.9,1.72.46,3.46.47,5.16-.17.84-.31,1.57-.79,2.17-1.47.25-.28.26-.49.14-.81-1.95-5.23-3.89-10.45-5.84-15.68-2.16-5.8-4.32-11.61-6.47-17.41-.05-.14-.09-.29-.14-.47.18-.01.33-.03.47-.03,3.2,0,6.4,0,9.6-.01.42,0,.54.16.65.51,1.97,6.85,3.95,13.69,5.93,20.54.04.15.09.29.24.46,2.18-7.16,4.36-14.33,6.55-21.49Z"/><path class="cls-3" d="m107.46,22.43c4.37.08,8.29,1.43,11.57,4.3,3,2.62,4.87,5.93,5.43,9.93.43,3.02.16,5.97-.94,8.81-1.09,2.81-2.8,5.19-5.21,7.04-4,3.07-8.54,4.1-13.5,3.44-3.34-.44-6.31-1.74-8.88-3.9-2.64-2.22-4.41-5.03-5.22-8.38-1.37-5.72-.34-10.93,3.56-15.43,2.65-3.06,6.06-4.81,10.04-5.46,1.04-.17,2.09-.24,3.14-.35Zm-7.52,16.73c-.12,4,2.34,7.3,5.88,7.95,2.76.51,5.21-.08,7.17-2.19,1.5-1.62,2.04-3.59,2.02-5.76-.02-1.36-.25-2.68-.88-3.88-1.35-2.56-3.49-3.92-6.39-4.01-2.03-.06-3.87.49-5.36,1.94-1.72,1.65-2.45,3.71-2.43,5.96Z"/><path class="cls-3" d="m223.72,55.13c0-5.72,0-11.36,0-17,0-1.4-.1-2.79-.59-4.11-.61-1.67-1.72-2.94-3.51-3.22-2.41-.38-4.14.22-5.59,2.27-1.14,1.6-1.38,3.45-1.4,5.33-.03,5.35-.01,10.71-.01,16.06,0,.2,0,.4,0,.64h-10.09c0-.21,0-.4,0-.58,0-10.13,0-20.26,0-30.39,0-.47.1-.64.61-.64,2.93.02,5.85.01,8.87.01v5.36s.1.02.15.03c.27-.48.5-.97.8-1.43,1.37-2.12,3.27-3.56,5.66-4.36,1.92-.64,3.88-.76,5.89-.46,2.25.33,4.18,1.25,5.8,2.82,1.71,1.67,2.75,3.71,3.13,6.04.23,1.4.34,2.83.35,4.25.04,6.2.02,12.41.02,18.61q0,.76-.73.76c-2.91,0-5.82,0-8.73,0h-.6Z"/><path class="cls-3" d="m43.42,30.25c.09-.18.19-.35.25-.53.59-1.78,1.5-3.37,2.81-4.73,1.98-2.05,4.38-2.83,7.18-2.35,1.24.21,1.23.24,1.23,1.47,0,2.48,0,4.96,0,7.45v.59c-.87-.19-1.66-.43-2.47-.53-2.35-.3-4.56.03-6.36,1.73-1.12,1.06-1.76,2.42-1.88,3.96-.11,1.51-.14,3.02-.15,4.53-.02,4.4,0,8.8,0,13.24h-10.02v-31.55h9.25v6.68c.05.01.1.02.16.03Z"/><path class="cls-3" d="m22.87,44.9s-.02.02-.03.03c-1.96,2.11-4.41,2.7-7.17,2.19-3.55-.66-6-3.95-5.88-7.95-.02-2.25.71-4.3,2.43-5.96,1.5-1.44,3.33-2,5.36-1.94,2.21.07,3.97.88,5.29,2.39l6.49-6.49c-.16-.15-.3-.3-.47-.44-1.77-1.54-3.72-2.63-5.83-3.34-1.59-.6-3.6-.94-5.69-.96-.02,0,.02,0,0,0,0,0-.06,0-.06,0-.02,0-.03,0-.05,0-1.88,0-4.01.3-6.34,1.19-2.6.92-4.89,2.43-6.78,4.61C.24,32.75-.8,37.96.58,43.68c.8,3.35,2.58,6.16,5.22,8.38,2.57,2.16,5.54,3.46,8.88,3.9,4.96.66,9.5-.37,13.5-3.44.44-.34.84-.72,1.23-1.09l-6.53-6.53Z"/><path class="cls-3" d="m282.29,55.02c-.2.05-.43.08-.68.08h-.68c-1.62,0-3.07-.53-4.36-1.59-1.29-1.06-1.93-2.57-1.93-4.54,0-1.72.63-3.17,1.89-4.36,1.26-1.19,2.68-1.78,4.24-1.78,2.02,0,3.7.66,5.04,1.97,1.34,1.31,2.01,3.26,2.01,5.83,0,3.08-1.2,5.92-3.6,8.52-2.4,2.6-5.52,4.08-9.36,4.43l-.23-1.29c2.78-.56,4.75-1.55,5.91-2.99,1.16-1.44,1.74-2.87,1.74-4.28Z"/><path class="cls-1" d="m14.21,10.1c-.23,1.48-1.73,2.6-3.48,2.6-2.08,0-3.67-1.63-3.67-3.78s1.57-3.81,3.67-3.81c1.75,0,3.25,1.11,3.48,2.6v.1l2.54-.24v-.11c-.3-2.62-2.94-4.68-6.02-4.68-3.48,0-6.12,2.64-6.12,6.15s2.64,6.1,6.12,6.1c3.08,0,5.72-2.07,6.02-4.69v-.11l-2.52-.21v.1h-.01Z"/><path class="cls-1" d="m25.1,2.95h-1.93l-4.66,11.74-.06.14h2.52l.83-2.11h4.62l.81,2.11h2.6l-4.71-11.81-.03-.07Zm-2.44,7.59l.74-1.9c.34-.9.6-1.73.73-2.18.13.46.39,1.28.71,2.2l.73,1.88h-2.92.01Z"/><polygon class="cls-1" points="35.01 2.95 32.61 2.95 32.61 14.83 40.17 14.83 40.17 12.54 35.01 12.54 35.01 2.95"/><rect class="cls-1" x="43.51" y="2.95" width="2.4" height="11.88"/><polygon class="cls-1" points="49.74 14.83 52.14 14.83 52.14 10.1 56.56 10.1 56.56 7.8 52.14 7.8 52.14 5.25 57.08 5.25 57.08 2.95 49.74 2.95 49.74 14.83"/><path class="cls-1" d="m65.99,2.77c-3.49,0-6.12,2.62-6.12,6.1s2.64,6.15,6.12,6.15,6.12-2.64,6.12-6.15-2.64-6.1-6.12-6.1Zm0,9.93c-2.07,0-3.68-1.67-3.68-3.81s1.61-3.78,3.68-3.78,3.67,1.65,3.67,3.78-1.57,3.81-3.67,3.81Z"/><path class="cls-1" d="m83.79,6.56c0-1.98-1.68-3.61-3.74-3.61h-5.12v11.88h2.4v-4.64h.83c1.65,0,2.45.7,2.54,2.21.06.91.14,1.83.21,2.32v.09h2.85l-.1-.17c-.31-.48-.39-1.2-.47-2.01l-.04-.36c-.11-.87-.33-1.83-1.26-2.48,1.2-.57,1.9-1.78,1.9-3.25h0Zm-3.94,1.53h-2.52v-2.82h2.52c.86,0,1.53.61,1.53,1.41s-.67,1.41-1.53,1.41Z"/><path class="cls-1" d="m94.26,8.47c0,.9.04,1.71.07,2.21-.24-.43-.64-1.14-1.14-1.88l-3.95-5.85h-2.03v11.88h2.4v-5.52c0-.9-.04-1.71-.07-2.21.24.43.64,1.13,1.14,1.88l3.97,5.85h2.01V2.95h-2.4v5.52Z"/><rect class="cls-1" x="100.61" y="2.95" width="2.4" height="11.88"/><path class="cls-1" d="m112.46,3.02l-.03-.07h-1.93l-4.66,11.74-.06.14h2.52l.83-2.11h4.62l.81,2.11h2.6l-4.71-11.81Zm-2.45,7.52l.74-1.9c.34-.9.6-1.73.73-2.18.13.46.39,1.28.71,2.2l.73,1.88h-2.92.01Z"/><path class="cls-2" d="m391.2,46.24c-6.17,0-11.06-4.4-11.06-11.98s5.18-12.4,11.42-12.4c4.12,0,6.48,1.55,6.87,1.94l-1.02,1.66c-.25-.18-2.36-1.52-5.67-1.52-5.07,0-9.3,3.73-9.3,10.04s3.52,10.18,9.06,10.18c3.56,0,6.03-1.73,6.17-1.8l1.06,1.62c-.25.28-3.07,2.26-7.51,2.26Z"/><path class="cls-2" d="m407.31,46.24c-4.62,0-7.65-3.45-7.65-8.88s2.96-8.88,7.82-8.88c4.58,0,7.58,3.42,7.58,9.02,0,5.29-3,8.74-7.75,8.74Zm.04-15.93c-3.38,0-5.5,2.78-5.5,6.98s2.36,7.08,5.53,7.08c3.49,0,5.5-2.71,5.5-6.94s-2.4-7.12-5.53-7.12Z"/><path class="cls-2" d="m424.68,46.24c-4.62,0-7.65-3.45-7.65-8.88s2.96-8.88,7.82-8.88c4.58,0,7.58,3.42,7.58,9.02,0,5.29-3,8.74-7.75,8.74Zm.04-15.93c-3.38,0-5.5,2.78-5.5,6.98s2.36,7.08,5.53,7.08c3.49,0,5.5-2.71,5.5-6.94s-2.4-7.12-5.53-7.12Z"/><path class="cls-2" d="m440.61,46.17c-2.15,0-3.56-.78-3.84-.95v8.1h-2.11v-24.42h2.01v1.16c.14-.11,2.04-1.59,4.86-1.59,4.44,0,7.4,3.42,7.4,8.53,0,5.43-3.42,9.16-8.32,9.16Zm.7-15.82c-2.43,0-4.33,1.48-4.55,1.66v11.17c.32.18,1.62,1.13,3.88,1.13,3.66,0,6.1-2.92,6.1-7.36,0-3.91-2.22-6.59-5.43-6.59Z"/><path class="cls-2" d="m465.21,37.78h-12.12c0,3.73,2.01,6.41,5.81,6.41,2.78,0,4.69-1.27,4.9-1.37l.95,1.62c-.07.11-2.57,1.73-6.03,1.73-4.93,0-7.82-3.59-7.82-8.7,0-5.46,3.03-8.99,7.72-8.99,3.91,0,6.66,2.96,6.66,8.17,0,.18-.07.78-.07,1.13Zm-6.55-7.51c-2.92,0-5.29,2.18-5.5,5.71h9.97c0-2.5-1.16-5.71-4.47-5.71Z"/><path class="cls-2" d="m476.13,30.49c-.25-.04-.7-.1-1.37-.1-3.59,0-5,2.82-5.14,2.96v12.47h-2.11v-16.91h2.01v2.22c.18-.21,1.9-2.68,5.36-2.68,1.27,0,1.66.25,1.76.28l-.49,1.76Z"/><path class="cls-2" d="m484.84,46.27c-4.16,0-6.63-2.33-6.84-2.5l1.16-1.62c.35.25,2.68,2.11,5.53,2.11,3.45,0,5.29-1.94,5.29-4.72,0-1.13-.49-2.04-1.2-2.75-2.11-2.11-6.34-2.64-8.74-5.04-.53-.53-1.41-1.76-1.41-3.84,0-3.49,2.78-6.03,6.94-6.03s6.24,2.29,6.45,2.5l-1.2,1.41c-.28-.21-1.97-1.97-5.07-1.97-2.92,0-4.93,1.69-4.93,4.05,0,1.02.39,1.8,1.02,2.43,1.94,1.94,6.34,2.5,8.63,4.79,1.02,1.02,1.83,2.36,1.83,4.26,0,3.95-2.57,6.91-7.47,6.91Z"/><path class="cls-2" d="m506.72,45.82v-1.34c-.32.21-2.57,1.69-5.5,1.69-1.59,0-3.03-.46-4.09-1.52-1.69-1.69-1.52-4.16-1.52-6.1v-9.65h2.11v10.08c0,1.8,0,3.31.99,4.3.67.67,1.59,1.02,2.64,1.02,2.5,0,4.9-1.52,5.18-1.66v-13.74h2.11v16.91h-1.94Z"/><path class="cls-2" d="m521.17,30.49c-.25-.04-.7-.1-1.37-.1-3.59,0-5,2.82-5.14,2.96v12.47h-2.11v-16.91h2.01v2.22c.18-.21,1.9-2.68,5.36-2.68,1.27,0,1.66.25,1.76.28l-.49,1.76Z"/><path class="cls-2" d="m534.39,51.95c-1.48,1.48-3.24,1.87-5.5,1.87-3.77,0-6.1-1.9-6.27-2.08l.95-1.48c.25.14,2.29,1.69,5.18,1.69,2.08,0,3.24-.53,3.98-1.3,1.06-1.06,1.09-2.22,1.09-4.93v-1.3c-.32.18-2.26,1.44-4.93,1.44-4.23,0-7.22-3.49-7.22-8.35,0-5.21,3.52-9.02,8.42-9.02,2.96,0,5.53,1.3,5.88,1.44v16.14c0,3-.32,4.58-1.59,5.88Zm-.56-20.79c-.25-.1-1.66-.81-3.84-.81-3.7,0-6.13,2.89-6.13,7.12,0,3.88,2.11,6.52,5.25,6.52,2.47,0,4.47-1.48,4.72-1.62v-11.21Z"/><path class="cls-2" d="m540.91,24.6c-.78,0-1.41-.63-1.41-1.41s.63-1.41,1.41-1.41,1.41.63,1.41,1.41-.63,1.41-1.41,1.41Zm-1.06,21.21v-16.91h2.11v16.91h-2.11Z"/><path class="cls-2" d="m552.89,46.17c-4.65,0-8-3.21-8-8.46s3.45-9.23,8.42-9.23c2.96,0,4.97,1.52,5.11,1.66l-.95,1.48c-.35-.21-1.8-1.23-4.26-1.23-3.66,0-6.13,3.03-6.13,7.01s2.5,6.8,5.92,6.8c2.68,0,4.47-1.16,4.76-1.3l.92,1.59c-.14.18-2.57,1.69-5.78,1.69Z"/><path class="cls-2" d="m570.51,45.82v-1.27c-.14.07-2.4,1.62-5.39,1.62-3.24,0-5.43-2.08-5.43-5.15,0-5.36,6.84-5.53,9.76-5.53h.88v-.63c0-1.59-.07-2.75-.85-3.56-.53-.53-1.48-.99-3.21-.99-2.61,0-4.44,1.2-4.69,1.34l-.88-1.48c.14-.14,2.33-1.73,5.81-1.73,2.15,0,3.59.63,4.58,1.62,1.13,1.13,1.34,2.29,1.34,4.86v10.89h-1.94Zm-.18-8.6h-.95c-4.33,0-7.51.99-7.51,3.84,0,1.69,1.09,3.24,3.73,3.24,2.18,0,4.26-1.16,4.72-1.37v-5.71Z"/><path class="cls-2" d="m576.08,45.82v-25.37h2.11v25.37h-2.11Z"/><path class="cls-2" d="m584.45,27.77c-2.15,0-3.87-1.71-3.87-3.86s1.73-3.87,3.87-3.87,3.87,1.73,3.87,3.87-1.73,3.86-3.87,3.86Zm0-6.92c-1.72,0-3.08,1.34-3.08,3.06s1.36,3.05,3.08,3.05,3.08-1.32,3.08-3.05-1.36-3.06-3.08-3.06Zm1.06,5.14l-.53-1.09c-.3-.62-.35-.63-.95-.63h-.19v1.73h-.74v-4.24h1.04c.56,0,1.02.02,1.39.35.25.23.37.55.37.9,0,.46-.25.93-.86,1,.32,0,.49.35.58.55l.67,1.44h-.77Zm-1.34-3.57h-.33v1.18c.49,0,1.34.07,1.34-.63,0-.55-.6-.55-1-.55Z"/><path class="cls-2" d="m343.9,46.23c-2.92,0-5.03-.88-5.7-1.12v-24.54h2.11v9.53c.18-.14,1.97-1.51,4.71-1.51,4.54,0,7.42,3.41,7.42,8.58s-3.52,9.07-8.54,9.07Zm.91-15.79c-2.6,0-4.25,1.48-4.5,1.65v11.67c.35.11,1.51.6,3.66.6,3.83,0,6.29-2.81,6.29-7.14,0-4.04-2.14-6.79-5.45-6.79Z"/><path class="cls-2" d="m362.5,47.08c-1.05,2.85-1.86,4.15-2.95,5.24-1.02,1.02-2.6,1.55-4.15,1.55-1.69,0-2.81-.53-3.02-.6l.56-1.72c.25.07,1.05.42,2.39.42,1.09,0,2.07-.32,2.74-.98,1.05-1.05,1.62-2.39,2.53-4.68l-6.96-17.3h2.32l5.8,14.59,5.24-14.59h2.18l-6.68,18.07Z"/><rect class="cls-2" x="312.26" y="-.03" width="2" height="68.8"/></svg>