<svg xmlns="http://www.w3.org/2000/svg" width="69" height="108" viewBox="0 0 69 108" fill="none" class="fill-juniper"
     data-v-b57bf15a="">
    <g clip-path="url(#clip0_580_22188)">
        <path d="M40.0525 63.4635C38.9938 63.7292 37.8004 63.8568 36.4827 63.8568C35.1588 63.8568 33.9634 63.8568 32.913 63.8568C24.4496 63.8568 16.8522 61.0953 10.1084 55.5743C3.36671 50.0595 0 42.1765 0 31.9274C0 22.9941 3.30249 15.4427 9.90746 9.26067C16.5124 3.09101 23.9171 0 32.1215 0C42.692 0 51.4848 3.41844 58.4855 10.2491C65.4862 17.0881 69 27.1931 69 40.597C69 56.6328 62.7182 71.4021 50.1609 84.942C37.6036 98.4737 21.2776 106.163 1.18715 108.002L0 101.301C14.5359 98.4036 24.8474 93.2183 30.9261 85.7307C37.0069 78.2431 40.0504 70.8173 40.0504 63.4656L40.0525 63.4635Z"></path>
    </g>
    <defs>
        <clipPath id="clip0_580_22188">
            <rect width="69" height="108" fill="white"></rect>
        </clipPath>
    </defs>
</svg>