<svg width="80" height="64" viewBox="0 0 80 64" class="fill-pine" xmlns="http://www.w3.org/2000/svg">
    <path d="M73.9266 60.92L72.3065 57.06C70.408 52.5516 67.1771 48.731 63.0466 46.11C58.8471 43.4124 53.9578 41.9852 48.9666 42H30.9666C25.9755 41.9864 21.0865 43.4135 16.8866 46.11C12.7656 48.7365 9.54256 52.556 7.64657 57.06L6.11654 60.7C5.96271 61.0673 5.96111 61.4807 6.11208 61.8492C6.26305 62.2177 6.55427 62.5112 6.92159 62.665C7.28891 62.8188 7.70225 62.8204 8.07076 62.6695C8.43927 62.5185 8.73273 62.2273 8.88656 61.86L10.4066 58.22C12.0765 54.2728 14.9088 50.9278 18.5266 48.63C22.2425 46.2508 26.5643 44.9907 30.9766 45H48.9766C53.3923 44.9888 57.7178 46.249 61.4365 48.63C65.0487 50.9272 67.8771 54.2682 69.5466 58.21L71.1666 62.08C71.3204 62.4473 71.6138 62.7385 71.9823 62.8895C72.3508 63.0404 72.7642 63.0388 73.1316 62.885C73.4989 62.7312 73.7901 62.4377 73.9411 62.0692C74.092 61.7007 74.0904 61.2873 73.9365 60.92H73.9266Z" class="fill-pine"></path>
    <path d="M24.6465 30H28.0065C28.2613 30.8305 28.5962 31.6343 29.0065 32.4C30.5558 35.1801 33.0881 37.2808 36.1065 38.29C37.5248 38.7644 39.011 39.0042 40.5065 39H40.6465C42.1787 39.0135 43.7026 38.7736 45.1565 38.29C47.7799 37.4352 50.0564 35.7549 51.6465 33.5H54.9865C56.18 33.5 57.3245 33.0259 58.1685 32.182C59.0124 31.3381 59.4865 30.1935 59.4865 29V24.08C59.5765 19.77 59.2865 13.45 55.7765 8.47001C54.0235 6.0631 51.7008 4.12865 49.0165 2.84C46.4852 1.6267 43.7136 0.997868 40.9065 1.00001H40.7865C37.9794 0.997868 35.2078 1.6267 32.6765 2.84C29.9863 4.13291 27.6598 6.07451 25.9065 8.49001C24.0776 11.2041 22.9286 14.3184 22.5565 17.57C21.8356 17.9443 21.2304 18.5079 20.8058 19.2004C20.3812 19.8928 20.1532 20.6878 20.1465 21.5V25.5C20.1491 26.6927 20.6241 27.8357 21.4674 28.6791C22.3107 29.5224 23.4538 29.9974 24.6465 30ZM51.1365 23.71C51.1968 26.0366 50.7675 28.3499 49.8765 30.5H44.4665C44.2602 29.9165 43.8784 29.411 43.3735 29.0529C42.8687 28.6949 42.2654 28.5017 41.6465 28.5H39.6465C38.8508 28.5 38.0878 28.8161 37.5251 29.3787C36.9625 29.9413 36.6465 30.7044 36.6465 31.5C36.6465 32.2957 36.9625 33.0587 37.5251 33.6213C38.0878 34.1839 38.8508 34.5 39.6465 34.5H41.6465C42.0659 34.4978 42.4801 34.4076 42.8625 34.2354C43.2449 34.0631 43.5869 33.8126 43.8665 33.5H47.6465C46.6634 34.3644 45.5177 35.0239 44.2765 35.44C43.1371 35.8274 41.9398 36.0168 40.7365 36H40.6365C39.4404 36.0177 38.2501 35.8317 37.1165 35.45C34.8124 34.6783 32.8772 33.0781 31.6865 30.96C30.6237 28.6989 30.1164 26.2168 30.2065 23.72C30.2065 21.02 30.3265 17.1 32.3265 14.22C33.2932 12.8639 34.5865 11.7736 36.0865 11.05C37.4326 10.3988 38.9017 10.0409 40.3965 10H40.9965C42.4913 10.0409 43.9603 10.3988 45.3065 11.05C46.7982 11.773 48.0869 12.8554 49.0565 14.2C51.0265 17.1 51.1965 21.02 51.1365 23.71ZM42.6465 31.5C42.6465 31.7652 42.5411 32.0196 42.3536 32.2071C42.166 32.3946 41.9117 32.5 41.6465 32.5H39.6465C39.3813 32.5 39.1269 32.3946 38.9394 32.2071C38.7519 32.0196 38.6465 31.7652 38.6465 31.5C38.6465 31.2348 38.7519 30.9804 38.9394 30.7929C39.1269 30.6054 39.3813 30.5 39.6465 30.5H41.6465C41.9117 30.5 42.166 30.6054 42.3536 30.7929C42.5411 30.9804 42.6465 31.2348 42.6465 31.5ZM28.2965 10.23C29.7554 8.22663 31.6903 6.61822 33.9265 5.55001C35.9368 4.58634 38.1279 4.05814 40.3565 4.00001H41.2465C43.4716 4.05954 45.6593 4.58771 47.6665 5.55001C49.8964 6.61468 51.8274 8.21582 53.2865 10.21C56.2865 14.46 56.5165 20.13 56.4365 24.05V29C56.4365 29.3978 56.2784 29.7794 55.9971 30.0607C55.7158 30.342 55.3343 30.5 54.9365 30.5H53.1165C53.7996 28.3228 54.1371 26.0518 54.1165 23.77C54.1765 20.66 53.9665 16.1 51.4365 12.47C50.1749 10.711 48.4941 9.2948 46.5465 8.35001C44.7081 7.45728 42.6902 6.99556 40.6465 7.00001C38.6095 6.9986 36.5989 7.46024 34.7665 8.35001C32.8093 9.29765 31.1212 10.7211 29.8565 12.49C28.9348 13.8668 28.2582 15.3926 27.8565 17H25.6465C26.0313 14.5786 26.9353 12.2692 28.2965 10.23ZM23.1465 21.5C23.1465 21.1022 23.3045 20.7207 23.5858 20.4394C23.8671 20.158 24.2487 20 24.6465 20H27.2965C27.1746 21.2528 27.1278 22.5117 27.1565 23.77C27.1701 24.8499 27.2435 25.9282 27.3765 27H24.6465C24.2487 27 23.8671 26.842 23.5858 26.5607C23.3045 26.2794 23.1465 25.8978 23.1465 25.5V21.5Z" class="fill-pine"></path>
</svg>