<svg width="80" height="64" viewBox="0 0 80 64" class="fill-pine" xmlns="http://www.w3.org/2000/svg">
    <path d="M76.16 2H3.84C2.82157 2 1.84483 2.40456 1.12469 3.12469C0.404555 3.84483 0 4.82157 0 5.84V58.16C0 59.1784 0.404555 60.1552 1.12469 60.8753C1.84483 61.5954 2.82157 62 3.84 62H76.16C77.1784 62 78.1552 61.5954 78.8753 60.8753C79.5954 60.1552 80 59.1784 80 58.16V5.84C80 4.82157 79.5954 3.84483 78.8753 3.12469C78.1552 2.40456 77.1784 2 76.16 2ZM3.84 5H76.16C76.382 5.0026 76.5941 5.09193 76.7511 5.2489C76.9081 5.40587 76.9974 5.61802 77 5.84V19.5H3V5.84C3.0026 5.61802 3.09193 5.40587 3.2489 5.2489C3.40587 5.09193 3.61802 5.0026 3.84 5ZM3 58.16V22.5H50.82V59H3.82001C3.60153 58.9923 3.39441 58.9007 3.2417 58.7443C3.08899 58.5879 3.00244 58.3786 3 58.16ZM76.16 59H53.82V22.5H77V58.16C76.9974 58.382 76.9081 58.5941 76.7511 58.7511C76.5941 58.9081 76.382 58.9974 76.16 59Z" class="fill-pine"></path>
    <path d="M31.76 16C32.5511 16 33.3245 15.7654 33.9823 15.3259C34.6401 14.8863 35.1528 14.2616 35.4555 13.5307C35.7583 12.7998 35.8375 11.9956 35.6831 11.2196C35.5288 10.4437 35.1479 9.73097 34.5884 9.17156C34.029 8.61215 33.3163 8.23121 32.5404 8.07687C31.7645 7.92253 30.9602 8.00172 30.2293 8.30447C29.4984 8.60722 28.8736 9.11991 28.4341 9.7777C27.9946 10.4355 27.76 11.2089 27.76 12C27.76 13.0609 28.1814 14.0783 28.9316 14.8284C29.6817 15.5786 30.6991 16 31.76 16ZM31.76 10.5C32.0567 10.5 32.3467 10.588 32.5934 10.7528C32.84 10.9176 33.0323 11.1519 33.1458 11.426C33.2593 11.7 33.289 12.0017 33.2312 12.2926C33.1733 12.5836 33.0304 12.8509 32.8206 13.0607C32.6109 13.2704 32.3436 13.4133 32.0526 13.4712C31.7617 13.5291 31.4601 13.4994 31.186 13.3858C30.9119 13.2723 30.6776 13.08 30.5128 12.8333C30.348 12.5867 30.26 12.2967 30.26 12C30.26 11.6022 30.418 11.2206 30.6993 10.9393C30.9806 10.658 31.3622 10.5 31.76 10.5Z" class="fill-pine"></path>
    <path d="M17 33.5H37C37.3978 33.5 37.7794 33.342 38.0607 33.0607C38.342 32.7794 38.5 32.3978 38.5 32C38.5 31.6022 38.342 31.2206 38.0607 30.9393C37.7794 30.658 37.3978 30.5 37 30.5H17C16.6022 30.5 16.2206 30.658 15.9393 30.9393C15.658 31.2206 15.5 31.6022 15.5 32C15.5 32.3978 15.658 32.7794 15.9393 33.0607C16.2206 33.342 16.6022 33.5 17 33.5Z" class="fill-pine"></path>
    <path d="M37 39.46H17C16.6022 39.46 16.2206 39.618 15.9393 39.8993C15.658 40.1806 15.5 40.5621 15.5 40.96C15.5 41.3578 15.658 41.7393 15.9393 42.0206C16.2206 42.3019 16.6022 42.46 17 42.46H37C37.3978 42.46 37.7794 42.3019 38.0607 42.0206C38.342 41.7393 38.5 41.3578 38.5 40.96C38.5 40.5621 38.342 40.1806 38.0607 39.8993C37.7794 39.618 37.3978 39.46 37 39.46Z" class="fill-pine"></path>
    <path d="M37 48.4199H17C16.6022 48.4199 16.2206 48.5779 15.9393 48.8593C15.658 49.1406 15.5 49.5221 15.5 49.9199C15.5 50.3177 15.658 50.6993 15.9393 50.9806C16.2206 51.2619 16.6022 51.4199 17 51.4199H37C37.3978 51.4199 37.7794 51.2619 38.0607 50.9806C38.342 50.6993 38.5 50.3177 38.5 49.9199C38.5 49.5221 38.342 49.1406 38.0607 48.8593C37.7794 48.5779 37.3978 48.4199 37 48.4199Z" class="fill-pine"></path>
    <path d="M10 16C10.7911 16 11.5645 15.7654 12.2223 15.3259C12.8801 14.8863 13.3928 14.2616 13.6955 13.5307C13.9983 12.7998 14.0775 11.9956 13.9231 11.2196C13.7688 10.4437 13.3878 9.73097 12.8284 9.17156C12.269 8.61215 11.5563 8.23121 10.7804 8.07687C10.0044 7.92253 9.20017 8.00172 8.46927 8.30447C7.73836 8.60722 7.11366 9.11991 6.67413 9.7777C6.23461 10.4355 6 11.2089 6 12C6 13.0609 6.42142 14.0783 7.17157 14.8284C7.92172 15.5786 8.93913 16 10 16ZM10 10.5C10.2967 10.5 10.5867 10.588 10.8333 10.7528C11.08 10.9176 11.2723 11.1519 11.3858 11.426C11.4994 11.7 11.5291 12.0017 11.4712 12.2926C11.4133 12.5836 11.2704 12.8509 11.0607 13.0607C10.8509 13.2704 10.5836 13.4133 10.2926 13.4712C10.0017 13.5291 9.70005 13.4994 9.42596 13.3858C9.15188 13.2723 8.91763 13.08 8.75281 12.8333C8.58799 12.5867 8.5 12.2967 8.5 12C8.5 11.6022 8.65803 11.2206 8.93933 10.9393C9.22064 10.658 9.60218 10.5 10 10.5Z" class="fill-pine"></path>
    <path d="M20.8799 16C21.671 16 22.4444 15.7654 23.1022 15.3259C23.76 14.8863 24.2727 14.2616 24.5754 13.5307C24.8782 12.7998 24.9573 11.9956 24.803 11.2196C24.6487 10.4437 24.2677 9.73097 23.7083 9.17156C23.1489 8.61215 22.4362 8.23121 21.6602 8.07687C20.8843 7.92253 20.0801 8.00172 19.3492 8.30447C18.6182 8.60722 17.9935 9.11991 17.554 9.7777C17.1145 10.4355 16.8799 11.2089 16.8799 12C16.8799 13.0609 17.3013 14.0783 18.0515 14.8284C18.8016 15.5786 19.819 16 20.8799 16ZM20.8799 10.5C21.1766 10.5 21.4666 10.588 21.7132 10.7528C21.9599 10.9176 22.1522 11.1519 22.2657 11.426C22.3792 11.7 22.4089 12.0017 22.351 12.2926C22.2932 12.5836 22.1503 12.8509 21.9406 13.0607C21.7308 13.2704 21.4635 13.4133 21.1725 13.4712C20.8815 13.5291 20.5799 13.4994 20.3058 13.3858C20.0318 13.2723 19.7975 13.08 19.6327 12.8333C19.4678 12.5867 19.3799 12.2967 19.3799 12C19.3799 11.6022 19.5379 11.2206 19.8192 10.9393C20.1005 10.658 20.4821 10.5 20.8799 10.5Z" class="fill-pine"></path>
</svg>