<svg width="80" height="64" viewBox="0 0 80 64" class="fill-eucalyptus" xmlns="http://www.w3.org/2000/svg">
    <path fill-rule="evenodd" clip-rule="evenodd" d="M34.6704 38.5L46.2703 38.5C49.6204 38.5004 52.8961 39.4849 55.6729 41.3298C58.45 43.1748 60.6019 45.7968 61.8448 48.8599C61.8448 48.8599 61.8448 48.86 61.8448 48.8599L62.8903 51.4359C63.2018 52.2035 62.8321 53.0784 62.0645 53.3899C61.2969 53.7014 60.422 53.3317 60.1105 52.5641L59.065 49.9881C58.0519 47.4912 56.2937 45.344 54.0127 43.8285C51.7314 42.3129 49.0341 41.5004 46.2703 41.5C46.2702 41.5 46.2703 41.5 46.2703 41.5H34.6709C34.6707 41.5 34.671 41.5 34.6709 41.5C31.9072 41.5009 29.2097 42.3136 26.9285 43.8292C24.6476 45.3446 22.8892 47.4915 21.8757 49.9881C21.8757 49.9881 21.8757 49.9881 21.8757 49.9881L20.8903 52.4161C20.5788 53.1837 19.7039 53.5534 18.9363 53.2419C18.1687 52.9303 17.799 52.0555 18.1105 51.2879L19.0959 48.8599C20.3392 45.7971 22.4914 43.1754 25.2684 41.3304C28.045 39.4857 31.3205 38.501 34.6704 38.5Z" class="fill-eucalyptus"></path>
    <path fill-rule="evenodd" clip-rule="evenodd" d="M13.491 41.375C11.6022 41.3755 9.77283 41.8507 8.24155 42.7196C6.71089 43.5881 5.56985 44.7963 4.92343 46.1562C4.92341 46.1562 4.92345 46.1561 4.92343 46.1562L4.24198 47.5902C3.91604 48.276 3.0958 48.5678 2.40991 48.2419C1.72403 47.916 1.43223 47.0957 1.75817 46.4098L2.43962 44.9758C3.35393 43.0523 4.9173 41.4439 6.88441 40.3278C8.85085 39.212 11.1515 38.6256 13.4906 38.625H21.5129C23.6591 38.6252 25.7718 39.1187 27.6235 40.0606C28.3003 40.4049 28.5699 41.2327 28.2256 41.9096C27.8813 42.5864 27.0535 42.856 26.3767 42.5117C24.9275 41.7745 23.2444 41.3752 21.5129 41.375M13.491 41.375C13.4908 41.375 13.4911 41.375 13.491 41.375V41.375ZM21.5129 41.375H13.491H21.5129Z" class="fill-eucalyptus"></path>
    <path fill-rule="evenodd" clip-rule="evenodd" d="M66.6091 41.375C68.5449 41.3755 70.4191 41.8531 71.9869 42.7253C73.5543 43.5972 74.7187 44.808 75.3769 46.1657C75.3769 46.1658 75.3769 46.1657 75.3769 46.1657L76.0719 47.5997C76.4031 48.2831 77.2256 48.5685 77.909 48.2373C78.5923 47.9061 78.8778 47.0836 78.5466 46.4003L77.8515 44.9663C76.9179 43.0405 75.3239 41.4348 73.3238 40.3221C71.3241 39.2096 68.9858 38.6256 66.6094 38.625H58.4271C56.4499 38.6252 54.5012 39.0293 52.7525 39.8037C52.0582 40.1112 51.7445 40.9233 52.052 41.6177C52.3595 42.312 53.1716 42.6257 53.866 42.3182C55.2513 41.7047 56.8192 41.3752 58.4271 41.375M66.6091 41.375C66.6092 41.375 66.609 41.375 66.6091 41.375V41.375ZM58.4271 41.375H66.6091H58.4271Z" class="fill-eucalyptus"></path>
    <path fill-rule="evenodd" clip-rule="evenodd" d="M47.7113 25.8751L47.5279 28.442C47.2939 31.7189 44.5672 34.2578 41.2819 34.2578C38.0252 34.2578 35.3121 31.7614 35.0416 28.5159L34.7479 24.9909C38.8884 24.8019 41.8899 23.2467 44.0216 21.6149C44.4534 22.9393 45.3581 24.9193 47.7113 25.8751ZM45.8187 20.0584C46.0549 19.8299 46.2741 19.6087 46.4771 19.399C47.3671 20.5432 47.8878 21.9842 47.867 23.5368C46.6447 22.7589 46.2638 21.511 45.9367 20.4393C45.897 20.3094 45.8582 20.182 45.8187 20.0584ZM41.2551 16.8432C42.6018 16.8432 43.8493 17.2442 44.8895 17.9302C43.0028 19.8709 39.8903 22.5842 34.671 22.8302C34.9819 19.5016 37.7863 16.8432 41.2551 16.8432ZM41.2551 14.201C35.8409 14.201 31.583 18.8284 32.0326 24.2239L32.4086 28.7353C32.7931 33.3502 36.651 36.9 41.2819 36.9C45.9534 36.9 49.8306 33.2898 50.1634 28.6302L50.486 24.1148C50.8686 18.7577 46.6258 14.201 41.2551 14.201Z" class="fill-eucalyptus"></path>
    <path fill-rule="evenodd" clip-rule="evenodd" d="M68.3369 28.2745L69.7239 25.6987L69.8505 23.9265C70.1239 20.0989 67.0924 16.8432 63.2551 16.8432C59.3867 16.8432 56.3444 20.1495 56.6657 24.0045L56.8938 26.7418L57.9793 28.3701C58.6417 27.5353 59.6651 27 60.8135 27H65.5813C66.6853 27 67.6737 27.4947 68.3369 28.2745ZM54.0326 24.2239C53.583 18.8284 57.8409 14.201 63.2551 14.201C68.6258 14.201 72.8686 18.7577 72.486 24.1148L72.1634 28.6302C71.8306 33.2898 67.9534 36.9 63.2819 36.9C58.651 36.9 54.7931 33.3502 54.4086 28.7353L54.0326 24.2239ZM60.8135 30.0134H65.5813C65.9142 30.0134 66.184 30.2832 66.184 30.6161V32.3839C66.184 32.7168 65.9142 32.9866 65.5813 32.9866H60.8135C60.4806 32.9866 60.2108 32.7168 60.2108 32.3839V30.6161C60.2108 30.2832 60.4806 30.0134 60.8135 30.0134Z" class="fill-eucalyptus"></path>
    <path fill-rule="evenodd" clip-rule="evenodd" d="M12.9121 15.5771C12.7999 15.3422 12.7371 15.0792 12.7371 14.8015C12.7371 13.8066 13.5436 13 14.5386 13C15.26 13 15.8824 13.4241 16.17 14.0365C16.4577 13.424 17.0801 13 17.8015 13C17.8589 13 17.9156 13.0027 17.9716 13.0079C18.0275 13.0027 18.0843 13 18.1416 13C18.863 13 19.4854 13.4241 19.7731 14.0365C20.0607 13.424 20.6831 13 21.4045 13C22.3995 13 23.2061 13.8066 23.2061 14.8015C23.2061 15.0792 23.1432 15.3422 23.031 15.5771C23.2659 15.4649 23.5289 15.402 23.8066 15.402C24.8016 15.402 25.6082 16.2086 25.6082 17.2035C25.6082 17.4811 25.5454 17.7441 25.4332 17.9789C25.668 17.8668 25.9309 17.804 26.2085 17.804C27.2034 17.804 28.01 18.6106 28.01 19.6055C28.01 20.1736 27.7471 20.6802 27.3363 21.0104C28.2397 21.1075 28.9431 21.8723 28.9431 22.8015C28.9431 23.7965 28.1366 24.603 27.1416 24.603L27.1265 24.603L26.8388 28.6302C26.506 33.2898 22.6288 36.9 17.9573 36.9C13.3264 36.9 9.46854 33.3502 9.08397 28.7353L8.73952 24.602C7.77328 24.5693 7 23.7757 7 22.8015C7 21.8723 7.70343 21.1075 8.6068 21.0104C8.19602 20.6802 7.93311 20.1736 7.93311 19.6055C7.93311 18.6106 8.73967 17.804 9.73461 17.804C10.0005 17.804 10.2529 17.8616 10.4801 17.965L10.4944 17.9457C10.392 17.7194 10.335 17.4681 10.335 17.2035C10.335 16.2086 11.1415 15.402 12.1365 15.402C12.4142 15.402 12.6772 15.4649 12.9121 15.5771ZM24.2033 28.442L24.5259 23.9265C24.5361 23.7839 24.5417 23.642 24.5428 23.5011C23.8422 23.2543 23.3401 22.5865 23.3401 21.8015C23.3401 21.7302 23.3442 21.6599 23.3523 21.5908C23.2832 21.5989 23.2129 21.603 23.1416 21.603C22.1467 21.603 21.3401 20.7965 21.3401 19.8015C21.3401 19.7302 21.3442 19.6599 21.3523 19.5908C21.2832 19.5989 21.2129 19.603 21.1416 19.603C20.2556 19.603 19.519 18.9635 19.3683 18.1208C19.0467 18.42 18.6155 18.603 18.1416 18.603C18.0843 18.603 18.0275 18.6003 17.9716 18.5951C17.9156 18.6003 17.8589 18.603 17.8015 18.603C17.3276 18.603 16.8964 18.42 16.5748 18.1208C16.4241 18.9635 15.6875 19.603 14.8015 19.603C14.7302 19.603 14.6599 19.5989 14.5908 19.5908C14.5989 19.6599 14.603 19.7302 14.603 19.8015C14.603 20.7965 13.7965 21.603 12.8015 21.603C12.7302 21.603 12.6599 21.5989 12.5908 21.5908C12.5989 21.6599 12.603 21.7302 12.603 21.8015C12.603 22.6168 12.0614 23.3057 11.3183 23.5278C11.3202 23.6856 11.3278 23.8446 11.3411 24.0045L11.7171 28.5159C11.9875 31.7614 14.7006 34.2578 17.9573 34.2578C21.2426 34.2578 23.9693 31.7189 24.2033 28.442Z" class="fill-eucalyptus"></path>
</svg>