<svg width="80" height="64" viewBox="0 0 80 64" class="fill-pine" xmlns="http://www.w3.org/2000/svg">
    <path d="M77 5H3C2.20435 5 1.44129 5.31608 0.878677 5.87869C0.316068 6.4413 0 7.20435 0 8V56C0 56.7957 0.316068 57.5587 0.878677 58.1213C1.44129 58.6839 2.20435 59 3 59H77C77.7956 59 78.5587 58.6839 79.1213 58.1213C79.6839 57.5587 80 56.7957 80 56V8C80 7.20435 79.6839 6.4413 79.1213 5.87869C78.5587 5.31608 77.7956 5 77 5ZM43 36.05C42.1976 36.6859 41.2038 37.032 40.18 37.032C39.1562 37.032 38.1624 36.6859 37.36 36.05L4.60001 8H75.73L43 36.05ZM30 33.67L3 54.34V10.58L30 33.67ZM32.33 35.67L35.43 38.33C36.774 39.4352 38.46 40.0394 40.2 40.0394C41.94 40.0394 43.626 39.4352 44.97 38.33L47.92 35.8L74.23 56H5.77L32.33 35.67ZM50.25 33.81L77 10.86V54.34L50.25 33.81Z" class="fill-pine"></path>
</svg>