<svg width="77" height="64" viewBox="0 0 77 64" class="fill-eucalyptus" xmlns="http://www.w3.org/2000/svg">
    <path fill-rule="evenodd" clip-rule="evenodd" d="M72.8573 58.6305L71.2173 54.7704C69.2668 50.2517 65.9885 46.4329 61.8173 43.8205C57.5451 41.1296 52.5964 39.7077 47.5473 39.7204H29.3173C24.2651 39.7075 19.3131 41.1293 15.0373 43.8205C10.8666 46.4306 7.59089 50.2504 5.64733 54.7704L4.09732 58.4104C3.95992 58.773 3.96829 59.1748 4.12065 59.5313C4.27302 59.8879 4.55756 60.1716 4.91457 60.323C5.27158 60.4743 5.67333 60.4815 6.03554 60.3431C6.39775 60.2047 6.69228 59.9313 6.85733 59.5804L8.40732 55.9405C10.1189 51.9828 12.9925 48.6384 16.6473 46.3504C19.7493 44.4031 23.262 43.2048 26.9073 42.8504C28.5924 45.1617 30.9657 46.8804 33.6873 47.7605C35.2333 48.2633 36.8519 48.5066 38.4773 48.4804C40.0894 48.5022 41.6941 48.259 43.2273 47.7605C45.9452 46.8837 48.3153 45.1682 49.9973 42.8604C53.6107 43.2257 57.091 44.4201 60.1673 46.3504C63.8251 48.6379 66.702 51.9821 68.4173 55.9405L70.0573 59.8004C70.1289 59.9892 70.2378 60.1616 70.3775 60.3073C70.5173 60.453 70.685 60.569 70.8706 60.6483C71.0562 60.7276 71.256 60.7687 71.4579 60.7689C71.6597 60.7692 71.8596 60.7287 72.0454 60.6499C72.2313 60.5711 72.3993 60.4557 72.5395 60.3104C72.6797 60.1651 72.7891 59.993 72.8611 59.8045C72.9332 59.6159 72.9665 59.4147 72.959 59.213C72.9514 59.0112 72.9033 58.8131 72.8173 58.6305H72.8573ZM42.3373 44.9104C41.11 45.3055 39.8265 45.4981 38.5373 45.4804H38.4073C37.1214 45.4973 35.8414 45.3048 34.6173 44.9104C33.212 44.4462 31.9158 43.7011 30.8073 42.7204H46.1473C45.0389 43.7011 43.7426 44.4462 42.3373 44.9104Z" class="fill-eucalyptus"></path>
    <path fill-rule="evenodd" clip-rule="evenodd" d="M58.9573 52.3503H54.5773V48.8104C54.519 48.4546 54.3361 48.1311 54.0614 47.8976C53.7866 47.6642 53.4378 47.5361 53.0773 47.5361C52.7168 47.5361 52.368 47.6642 52.0932 47.8976C51.8184 48.1311 51.6356 48.4546 51.5773 48.8104V52.3503H46.9773C46.7121 52.3503 46.4577 52.4557 46.2702 52.6432C46.0827 52.8308 45.9773 53.0851 45.9773 53.3503V61.3503C45.9773 61.6156 46.0827 61.8699 46.2702 62.0574C46.4577 62.245 46.7121 62.3503 46.9773 62.3503H58.9773C59.2425 62.3503 59.4969 62.245 59.6844 62.0574C59.8719 61.8699 59.9773 61.6156 59.9773 61.3503V53.3503C59.9773 53.2173 59.9508 53.0857 59.8993 52.963C59.8478 52.8404 59.7724 52.7292 59.6774 52.636C59.5824 52.5429 59.4698 52.4697 59.3461 52.4207C59.2225 52.3716 59.0903 52.3477 58.9573 52.3503ZM57.4673 59.8503H48.4673V54.8503H57.4673V59.8503Z" class="fill-eucalyptus"></path>
    <path fill-rule="evenodd" clip-rule="evenodd" d="M23.9873 19.8004C23.9027 22.9738 24.5889 26.1204 25.9873 28.9704C27.6652 31.9237 30.3811 34.1477 33.6073 35.2104C35.1676 35.7284 36.8034 35.9819 38.4473 35.9604H38.4773C40.1179 35.9826 41.7507 35.7291 43.3073 35.2104C46.5321 34.1452 49.2471 31.9218 50.9273 28.9704C52.3211 26.1188 53.0072 22.9734 52.9273 19.8004C53.0073 15.8704 52.5973 11.3904 50.0573 7.80042C48.6922 5.93134 46.8849 4.42989 44.7973 3.43042C42.8129 2.48862 40.6438 2 38.4473 2C36.2507 2 34.0817 2.48862 32.0973 3.43042C30.0097 4.42989 28.2024 5.93134 26.8373 7.80042C24.2973 11.4104 23.8873 15.8804 23.9673 19.8004H23.9873ZM29.3073 9.5304C30.3727 8.06352 31.7893 6.88759 33.4273 6.11041C34.9018 5.40079 36.5113 5.01547 38.1473 4.98041H38.7973C40.4365 5.01559 42.0492 5.40087 43.5273 6.11041C45.1634 6.89047 46.5794 8.06585 47.6473 9.5304C49.6473 12.3104 50.0473 15.9604 49.9673 19.7404C50.0596 22.4251 49.5075 25.0928 48.3573 27.5204C47.0285 29.8257 44.8899 31.5544 42.3573 32.3704C41.1146 32.7906 39.8089 32.9936 38.4973 32.9704H38.3673C37.0558 32.992 35.7503 32.7891 34.5073 32.3704C31.9924 31.5453 29.8725 29.8173 28.5573 27.5204C27.4026 25.0943 26.8503 22.4255 26.9473 19.7404C26.9173 15.9604 27.3473 12.3204 29.3073 9.5304Z" class="fill-eucalyptus"></path>
</svg>